<svg id="Layer_1" enable-background="new 0 0 512 512" height="512" viewBox="0 0 512 512" width="512" xmlns="http://www.w3.org/2000/svg"><g><path d="m501.459 352.37c-7.754-.687-11.881-4.009-17.106-8.214-6.453-5.193-14.484-11.657-29.552-11.657-5.156 0-9.472.768-13.199 1.971 4.757-10.15 2.862-19.18 1.243-23.759-1.578-4.428-5.807-7.403-10.525-7.403h-34.089c-4.142 0-7.5 3.357-7.5 7.5s3.358 7.5 7.5 7.5h31.151c.465 2.668.427 6.369-1.641 10.404-3.074 6.001-11.499 14.513-34.069 21.427-3.15-1.508-5.778-3.617-8.716-5.982-6.453-5.193-14.484-11.657-29.552-11.657s-23.1 6.464-29.553 11.657c-5.791 4.661-10.366 8.343-20.147 8.343-8.768 0-13.353-2.961-18.38-6.932l14.518-27.259h61.618c4.142 0 7.5-3.357 7.5-7.5s-3.358-7.5-7.5-7.5h-53.629l16.179-30.377c1.103.165 2.209.256 3.311.256 8.053 0 15.854-4.33 19.896-11.92l10.812-20.301c2.462-4.622.704-10.387-3.919-12.85l-22.947-12.223c-4.623-2.463-10.387-.705-12.852 3.919l-10.812 20.3c-4.596 8.63-2.98 18.936 3.269 25.772l-19.932 37.424h-78.07c-6.04-95.604-10.041-142.66-12.937-152.258-5.958-19.758-38.979-69.993-68.794-75.407-17.741-3.212-32.812.305-47.427 11.073-3.335 2.456-4.047 7.151-1.59 10.487 2.458 3.336 7.154 4.047 10.487 1.59 11.368-8.373 22.089-10.88 35.854-8.391 15.35 2.787 35.926 26.511 47.995 46.263-13.464.741-25.521 5.869-37.184 10.839-1.463.624-2.923 1.246-4.381 1.857-.23.097-.456.204-.676.323-25.785 13.98-52.639 4.996-76.455-3.306 1.926-7 4.013-12.405 6.275-15.688 1.99-2.888 3.973-5.642 5.892-8.188 2.494-3.308 1.833-8.01-1.474-10.504-3.307-2.491-8.01-1.834-10.503 1.475-2.046 2.714-4.153 5.642-6.264 8.704-16.825 24.412-24.023 122.234-29.269 224.599-3.879 2.912-7.722 5.057-13.774 5.592-6.009.533-10.541 5.459-10.541 11.459v44.172c0 16.266 13.234 29.5 29.5 29.5h147.961c4.142 0 7.5-3.357 7.5-7.5s-3.358-7.5-7.5-7.5h-147.961c-7.995 0-14.5-6.505-14.5-14.5v-41.077c10.36-1.67 16.543-6.646 22.055-11.081 5.792-4.661 10.368-8.343 20.151-8.343s14.358 3.682 20.15 8.343c6.454 5.193 14.485 11.657 29.555 11.657 15.068 0 23.099-6.464 29.552-11.657 5.791-4.661 10.365-8.343 20.146-8.343 9.782 0 14.356 3.682 20.148 8.343 6.453 5.193 14.484 11.657 29.552 11.657s23.099-6.464 29.552-11.657c5.791-4.661 10.365-8.343 20.146-8.343s14.355 3.682 20.146 8.343c6.453 5.193 14.483 11.657 29.551 11.657s23.099-6.464 29.552-11.657c5.792-4.661 10.366-8.343 20.148-8.343 9.781 0 14.355 3.682 20.146 8.343 6.453 5.193 14.484 11.657 29.551 11.657 15.068 0 23.099-6.464 29.552-11.657 5.791-4.661 10.365-8.343 20.147-8.343 9.781 0 14.356 3.682 20.147 8.343 5.511 4.436 11.692 9.411 22.052 11.081v41.077c0 7.995-6.505 14.5-14.5 14.5h-270.268c-4.142 0-7.5 3.357-7.5 7.5s3.358 7.5 7.5 7.5h270.269c16.266 0 29.5-13.234 29.5-29.501v-44.172c0-5.999-4.532-10.925-10.541-11.457zm-178.718-105.207 8.227-15.446 13.239 7.052-8.227 15.446c-1.944 3.651-6.497 5.037-10.146 3.095-3.649-1.945-5.037-6.497-3.093-10.147zm-215.83 105.335c-9.783 0-14.358-3.682-20.15-8.343-6.454-5.193-14.485-11.657-29.555-11.657-7.176 0-12.744 1.474-17.318 3.57 2.399-45.854 7.245-128.545 16.38-174.987 15.187 5.277 32.415 10.925 50.474 10.925 11.822 0 24-2.421 36.186-8.952 1.374-.577 2.749-1.163 4.126-1.75 10.975-4.678 21.347-9.098 32.211-9.676 2.342.134 4.706.367 7.139.692.418 1.078.777 2.104 1.066 3.062 2.442 8.093 6.568 57.853 12.268 147.925h-61.738c-4.742 0-8.974 2.992-10.52 7.415-1.824 5.146-4.4 17.126 4.636 29.539-1.83 1.299-3.493 2.634-5.059 3.895-5.79 4.661-10.365 8.342-20.146 8.342zm119.545-8.342c-5.791 4.661-10.365 8.343-20.146 8.343-9.782 0-14.356-3.682-20.148-8.343-6.453-5.193-14.484-11.657-29.552-11.657-3.954 0-7.413.453-10.497 1.204-5.362-5.929-5.852-11.511-5.169-15.394h143.905l-9.885 18.559c-4.867-2.514-10.9-4.368-18.957-4.368-15.067-.002-23.098 6.462-29.551 11.656z"/></g></svg>