<?xml version="1.0" encoding="iso-8859-1"?>
<!-- Generator: Adobe Illustrator 19.0.0, SVG Export Plug-In . SVG Version: 6.00 Build 0)  -->
<svg version="1.1" id="Capa_1" xmlns="http://www.w3.org/2000/svg" xmlns:xlink="http://www.w3.org/1999/xlink" x="0px" y="0px"
	 viewBox="0 0 512.003 512.003" style="enable-background:new 0 0 512.003 512.003;" xml:space="preserve">
<g>
	<g>
		<g>
			<path d="M503.47,332.802c-4.713,0-8.533,3.821-8.533,8.533v8.358l-230.4-309.849V8.535c0-4.713-3.82-8.533-8.533-8.533
				c-4.713,0-8.533,3.82-8.533,8.533v31.311l-28.335,38.105c-5.156-27.86-28.018-49.013-56.193-51.994
				c-28.175-2.981-54.958,12.919-65.83,39.082C83.736,51.561,63.544,47.498,45.996,54.754C28.448,62.01,17.022,79.147,17.07,98.135
				c0.005,2.818,0.278,5.63,0.817,8.396c-13.739,7.435-20.675,23.25-16.838,38.393s17.466,25.748,33.088,25.744h116.055
				L17.07,349.693v-8.358c0-4.713-3.82-8.533-8.533-8.533s-8.533,3.821-8.533,8.533v34.133c-0.001,3.679,2.358,6.945,5.85,8.101
				c3.493,1.156,7.334-0.057,9.529-3.009l35.821-48.173v26.015c0.015,14.132,11.468,25.585,25.6,25.6h124.232
				c-2.141,2.872-4.006,5.938-5.573,9.158c-3.725,7.565-5.675,15.88-5.7,24.313c0.193,16.746,7.691,32.573,20.527,43.329h-22.552
				c-14.138,0-25.6,11.461-25.6,25.6s11.461,25.6,25.6,25.6H324.27c14.138,0,25.6-11.462,25.6-25.6s-11.462-25.6-25.6-25.6h-20.453
				c0.881-0.766,1.799-1.492,2.636-2.304c10.886-10.563,17.235-24.947,17.704-40.108v-0.004c0.164-3.164,0.148-6.334-0.05-9.496
				c-0.431-8.445-1.906-16.805-4.391-24.888h115.487c14.132-0.015,25.585-11.468,25.6-25.6v-26.015l35.821,48.173
				c2.195,2.952,6.036,4.165,9.529,3.009s5.851-4.421,5.851-8.1v-34.133C512.003,336.622,508.183,332.802,503.47,332.802z
				 M34.137,153.602c-9.422-0.009-17.057-7.645-17.067-17.067c-0.039-7.876,5.372-14.733,13.042-16.525
				c2.369-0.556,4.388-2.097,5.549-4.235c1.161-2.138,1.354-4.671,0.531-6.96c-1.301-3.413-1.996-7.027-2.054-10.679
				c-0.048-14.939,10.982-27.6,25.786-29.599s28.798,7.283,32.714,21.699c1.117,4.076,5.049,6.72,9.245,6.217
				c4.196-0.503,7.392-4.001,7.514-8.225c0.735-25.637,21.927-45.93,47.572-45.554c25.645,0.376,46.232,21.281,46.216,46.929
				c-0.004,4.062-0.558,8.105-1.647,12.018l-38.654,51.982H34.137z M324.27,477.868c4.713,0,8.533,3.82,8.533,8.533
				s-3.82,8.533-8.533,8.533H187.737c-4.713,0-8.533-3.82-8.533-8.533s3.82-8.533,8.533-8.533H324.27z M256.316,430.123
				c0.446,1.208,1.804,4.875,9.712,7.187c2.318,0.686,4.721,1.041,7.138,1.054c4.449,0.064,8.841-1.002,12.767-3.096
				c1.116,9.186-3.372,18.148-11.396,22.757c-5.64,1.827-11.53,2.764-17.458,2.777c-1.466,0-2.909-0.083-4.343-0.19
				c-6.012-2.83-21.899-11.412-22.015-23.256c0.167-4.881,2.455-9.446,6.267-12.5c1.919-1.559,3.933-2.998,6.029-4.308
				c2.754-1.734,5.39-3.648,7.892-5.729c5.35-4.274,9.251-10.094,11.171-16.667c0.549,1.264,0.992,2.571,1.325,3.908
				c0.283,1.122,0.466,2.267,0.546,3.421c-0.456,6.22-2.821,12.148-6.771,16.975C255.703,424.734,255.383,427.573,256.316,430.123z
				 M307.116,417.473c-0.257,5.865-1.661,11.623-4.134,16.948c-0.164-1.507-0.419-3.002-0.766-4.478
				c-0.705-2.875-1.7-5.672-2.971-8.346c-0.746-1.594-1.609-3.13-2.583-4.596c-0.125-0.183-0.683-0.905-1.362-1.683l-0.629-0.729
				c-1.791-2.558-4.837-3.933-7.94-3.586c-3.104,0.347-5.77,2.362-6.951,5.253c-0.054,0.138-0.108,0.275-0.154,0.408
				c-0.254,0.691-0.458,1.371-0.654,2.05c-0.071,0.229-0.127,0.463-0.167,0.7c-0.213,0.304-0.49,0.557-0.813,0.742
				c2.301-5.033,3.322-10.557,2.971-16.079c-0.158-2.075-0.492-4.132-1-6.15c-2.665-10.534-9.139-19.706-18.171-25.746
				c-0.129-0.088-0.729-0.438-1.192-0.7c-1.541-1.462-3.572-2.296-5.696-2.337c-4.689-0.037-8.551,3.672-8.704,8.358v0.038
				c-0.033,1.808,0,3.612,0.038,5.417c0.23,3.506,0.039,7.027-0.571,10.487c-1.013,3.361-3.069,6.311-5.871,8.425
				c-1.961,1.608-4.024,3.087-6.175,4.429c-2.696,1.702-5.281,3.572-7.742,5.6c-7.634,6.324-12.104,15.683-12.225,25.596
				c0.006,0.666,0.159,1.316,0.209,1.977c-4.532-6.444-6.987-14.12-7.034-21.998c0.022-5.818,1.372-11.554,3.946-16.771
				c1.657-3.527,3.865-6.768,6.542-9.6c4.142-3.709,7.029-8.612,8.263-14.033c0.084-0.512,0.075-1.018,0.119-1.528l0.015-0.072
				l-0.006-0.032c0.332-9.06-4.665-17.478-12.777-21.527c3.933-0.498,7.924-0.272,11.775,0.667c2.879,0.629,5.879-0.271,7.935-2.381
				c2.057-2.11,2.88-5.132,2.177-7.994c-2.758-11.213-2.358-31.475,16.629-36.284c4.371-0.969,8.902-0.965,13.271,0.013
				c-1.244,3.073-1.95,6.337-2.088,9.65c0.171,12.495,5.256,24.419,14.154,33.192c8.515,8.272,15.987,17.553,22.25,27.638
				c5.039,9.754,7.789,20.528,8.042,31.504C307.232,412.431,307.246,414.955,307.116,417.473z M311.937,366.935
				c-6.616-10.067-14.252-19.425-22.788-27.925c-5.631-5.456-9.011-12.827-9.471-20.654c0.094-3.32,1.616-6.438,4.175-8.554
				l0.071-0.058c2.375-2.119,3.373-5.384,2.589-8.469s-3.22-5.477-6.318-6.206c-0.896-0.296-2.783-0.988-4.454-1.6
				c-2.071-0.754-3.908-1.383-4.2-1.458c-7.914-2.256-16.271-2.474-24.292-0.633c-20.006,5.397-33.052,24.619-30.679,45.204
				c-9.451-0.257-18.608,3.302-25.404,9.875c-2.96,2.954-4.11,7.268-3.012,11.304c1.144,4.078,4.384,7.232,8.492,8.267
				c1.089,0.276,2.203,0.602,3.212,0.908h-74.275l93.125-164.338c0.067-0.108,0.129-0.221,0.188-0.329l37.108-65.489l37.165,65.584
				l0.131,0.233l93.125,164.338H311.937z M119.47,343.098l0-26.755c-0.025-9.058,3.574-17.749,9.996-24.137l43.484-43.484
				L119.47,343.098z M339.056,248.722l43.484,43.484c6.421,6.388,10.021,15.08,9.996,24.137l0,26.755L339.056,248.722z
				 M443.737,358.402c-0.006,4.71-3.823,8.527-8.533,8.533h-25.6v-50.592c0.038-13.587-5.362-26.624-14.996-36.204l-87.116-87.12
				l-42.955-75.804V93.868c0-4.713-3.82-8.533-8.533-8.533c-4.713,0-8.533,3.821-8.533,8.533v23.347l-42.955,75.804l-87.116,87.12
				c-9.634,9.581-15.034,22.618-14.996,36.204v50.592h-25.6c-4.71-0.006-8.527-3.823-8.533-8.533v-48.966L215.876,110.93
				c0.065-0.075,0.113-0.157,0.175-0.235l39.952-53.729l187.733,252.469V358.402z"/>
			<path d="M380.691,148.209v0.001c-0.307,0.18-0.601,0.381-0.881,0.6c-1.38,0.608-2.482,1.712-3.086,3.093
				c-0.208,0.265-0.398,0.543-0.57,0.832l-0.013,0.06c-0.398,0.974-0.612,2.014-0.632,3.066c-0.002,0.066-0.039,0.131-0.039,0.196
				c0,0.155,0.082,0.308,0.09,0.464c0.03,0.956,0.22,1.9,0.562,2.793l0.015,0.075c0.391,0.896,0.934,1.718,1.607,2.428
				c0.163,0.178,0.362,0.312,0.541,0.477c0.592,0.546,1.259,1.005,1.982,1.361c0.148,0.073,0.242,0.206,0.396,0.272
				c10.498,4.474,21.797,6.768,33.208,6.742c47.128,0,85.333-38.205,85.333-85.333S460.998,0.002,413.87,0.002
				c-11.345-0.023-22.578,2.247-33.025,6.674l-0.101,0.037l-0.083,0.03c-0.251,0.153-0.494,0.319-0.727,0.499
				c-0.718,0.354-1.382,0.81-1.97,1.353c-0.441,0.505-0.819,1.06-1.127,1.655c-0.26,0.325-0.494,0.669-0.701,1.03l-0.015,0.075
				c-0.342,0.893-0.532,1.837-0.562,2.793c-0.008,0.156-0.09,0.309-0.09,0.464c0,0.065,0.037,0.131,0.039,0.196
				c0.02,1.052,0.235,2.091,0.632,3.066l0.013,0.06c0.174,0.292,0.366,0.572,0.575,0.839c0.338,0.671,0.765,1.294,1.269,1.852
				c0.55,0.493,1.164,0.911,1.824,1.242c0.276,0.216,0.567,0.414,0.869,0.592c25.28,10.667,41.712,35.437,41.712,62.875
				C422.403,112.772,405.971,137.542,380.691,148.209z M439.47,85.335c-0.008-26.615-12.489-51.688-33.719-67.739
				c25.178-3.025,49.957,8.161,64.342,29.044s16.006,48.022,4.207,70.468c-11.799,22.447-35.071,36.5-60.43,36.493
				c-2.714-0.016-5.425-0.193-8.119-0.529C426.981,137.022,439.462,111.95,439.47,85.335z"/>
			<path d="M111.959,418.197c-3.026-0.365-6.018,0.912-7.847,3.35L93.87,435.203v-25.602c0-4.713-3.821-8.533-8.533-8.533
				s-8.533,3.82-8.533,8.533v25.602l-10.242-13.656c-2.828-3.769-8.177-4.532-11.946-1.704c-3.769,2.828-4.532,8.176-1.704,11.946
				l25.6,34.133c0.107,0.144,0.286,0.201,0.402,0.336c0.564,0.64,1.223,1.191,1.954,1.632c0.284,0.22,0.582,0.421,0.892,0.602
				c2.253,1.124,4.903,1.124,7.155,0c0.31-0.181,0.608-0.382,0.892-0.602c0.731-0.441,1.39-0.991,1.954-1.632
				c0.116-0.135,0.295-0.192,0.402-0.336l25.6-34.133c1.83-2.438,2.219-5.667,1.022-8.471
				C117.587,420.515,114.985,418.563,111.959,418.197z"/>
			<path d="M453.293,418.197c-3.026-0.365-6.018,0.912-7.847,3.35l-10.243,13.656v-25.602c0-4.713-3.82-8.533-8.533-8.533
				s-8.533,3.82-8.533,8.533v25.602l-10.242-13.656c-2.828-3.769-8.177-4.532-11.946-1.704c-3.769,2.828-4.532,8.176-1.704,11.946
				l25.6,34.133c0.107,0.144,0.286,0.201,0.402,0.336c0.564,0.641,1.223,1.191,1.954,1.632c0.284,0.22,0.582,0.421,0.892,0.602
				c2.253,1.124,4.903,1.124,7.155,0c0.31-0.181,0.608-0.382,0.892-0.602c0.731-0.441,1.39-0.991,1.954-1.632
				c0.116-0.135,0.295-0.192,0.402-0.336l25.6-34.133c1.829-2.438,2.219-5.667,1.022-8.471S456.32,418.563,453.293,418.197z"/>
		</g>
	</g>
</g>
<g>
</g>
<g>
</g>
<g>
</g>
<g>
</g>
<g>
</g>
<g>
</g>
<g>
</g>
<g>
</g>
<g>
</g>
<g>
</g>
<g>
</g>
<g>
</g>
<g>
</g>
<g>
</g>
<g>
</g>
</svg>
